<svg xmlns="http://www.w3.org/2000/svg" viewBox="0 0 512 512" role="img" aria-label="Dove Nest logo">
  <defs>
    <linearGradient id="g" x1="80" y1="70" x2="430" y2="450" gradientUnits="userSpaceOnUse">
      <stop stop-color="#2d7a4d"/>
      <stop offset=".48" stop-color="#0ea5a4"/>
      <stop offset="1" stop-color="#f4a261"/>
    </linearGradient>
    <filter id="s" x="-20%" y="-20%" width="140%" height="140%">
      <feDropShadow dx="0" dy="18" stdDeviation="16" flood-opacity=".22"/>
    </filter>
  </defs>
  <circle cx="256" cy="256" r="232" fill="url(#g)" filter="url(#s)"/>
  <circle cx="256" cy="256" r="204" fill="#fff7ea" opacity=".94"/>
  <path d="M112 324c48-68 96-98 144-98s96 30 144 98c-37-21-73-32-108-32-12 0-24 1-36 4-12-3-24-4-36-4-35 0-71 11-108 32z" fill="#2d7a4d"/>
  <path d="M157 276c30-72 78-118 144-137-5 72-43 122-114 151 23-46 56-80 99-102-47 10-87 42-129 88z" fill="#50a45f"/>
  <path d="M342 151c35 28 52 64 49 109-45-19-72-51-81-96 23 24 40 52 51 83 7-32 1-64-19-96z" fill="#0ea5a4"/>
  <path d="M154 337h204c14 0 25 11 25 25v12H129v-12c0-14 11-25 25-25z" fill="#2d7a4d"/>
  <path d="M180 354h152" stroke="#fff7ea" stroke-width="18" stroke-linecap="round"/>
  <text x="256" y="420" text-anchor="middle" font-family="Arial, Helvetica, sans-serif" font-size="42" font-weight="900" fill="#1e4d34" letter-spacing="2">TN</text>
</svg>
